<?xml version="1.0" encoding="UTF-8" standalone="no" ?>
<!DOCTYPE svg PUBLIC "-//W3C//DTD SVG 1.1//EN" "http://www.w3.org/Graphics/SVG/1.1/DTD/svg11.dtd">
<svg xmlns="http://www.w3.org/2000/svg" xmlns:xlink="http://www.w3.org/1999/xlink" version="1.1" width="1280" height="1024" viewBox="0 0 1280 1024" xml:space="preserve">
<desc>Created with Fabric.js 4.4.0</desc>
<defs>
</defs>
<g transform="matrix(1 0 0 1 640 512)" id="background-logo"  >
<rect style="stroke: none; stroke-width: 0; stroke-dasharray: none; stroke-linecap: butt; stroke-dashoffset: 0; stroke-linejoin: miter; stroke-miterlimit: 4; fill: rgb(255,255,255); fill-opacity: 0; fill-rule: nonzero; opacity: 1;"  paint-order="stroke"  x="-640" y="-512" rx="0" ry="0" width="1280" height="1024" />
</g>
<g transform="matrix(1.9211538461538462 0 0 1.9211538461538462 640 375.3334333649338)" id="logo-logo"  >
<g style=""  paint-order="stroke"   >
		<g transform="matrix(0.3404042298918953 0 0 0.3404042298918953 0 0)"  >
<linearGradient id="SVGID_1_2_180451" gradientUnits="userSpaceOnUse" gradientTransform="matrix(1 0 0 1 0 0)"  x1="292.6421204" y1="134.5199738" x2="697.8846436" y2="785.1387329">
<stop offset="0%" style="stop-color:rgb(26,214,255);stop-opacity: 1"/>
<stop offset="100%" style="stop-color:rgb(63,60,165);stop-opacity: 1"/>
</linearGradient>
<path style="stroke: none; stroke-width: 1; stroke-dasharray: none; stroke-linecap: butt; stroke-dashoffset: 0; stroke-linejoin: miter; stroke-miterlimit: 4; fill: url(#SVGID_1_2_180451); fill-rule: nonzero; opacity: 1;"  paint-order="stroke"  transform=" translate(-500.0000102296514, -500.00000024999986)" d="M 861.0857544 507.5523376 C 855.0180054 490.1518249 761.1196899 437.6141662 768.4500122000001 407.3905944 C 781.9644165000001 351.6696471 773.2390747000001 300.4663695 740.9038696 258.7373351 C 698.0883789 203.4830779 619.5551758 170.4960021 530.8278808 170.4960021 C 487.7428588 170.4960021 447.0794067 179.6005248 411.1940002 195.6548766 L 331.0284729 195.6548766 C 326.1552429 176.62069689999998 308.859375 162.5077514 288.3274536 162.5077514 C 264.025116 162.5077514 244.2538452 182.2790374 244.2538452 206.5813751 C 244.2538452 230.8846741 264.025116 250.65596010000002 288.3274536 250.65596010000002 C 308.8594971 250.65596010000002 326.1556091 236.54277040000002 331.028595 217.5078583 L 408.7070618 217.5078583 L 475.1286316 283.9301453 L 331.0641174 283.9301453 C 348.4541015 261.657135 370.7866211 242.43611149999998 396.7277221 227.4410401 L 357.5838317 227.4410401 C 336.4805602 243.6156769 318.3987121 262.6862183 304.171173 283.9301453 L 238.3550414 283.9301453 C 233.4818267 264.8959656 216.1859588 250.7830353 195.6540374 250.7830353 C 171.3516998 250.7830353 151.5804137 270.55432129999997 151.5804137 294.856659 C 151.5804137 319.1589661 171.3516997 338.9302674 195.6540374 338.9302674 C 216.18595879999998 338.9302674 233.4818267 324.8173218 238.3550414 305.7831422 L 533.3703611999999 305.7831422 L 466.94805899999994 372.2054444 L 399.92047109999993 372.2054444 C 395.04724109999995 353.1712647 377.75137319999993 339.05831919999997 357.21945179999994 339.05831919999997 C 332.91714469999994 339.05831919999997 313.14486679999993 358.82959 313.14486679999993 383.1319276 C 313.14486679999993 407.43426519999997 332.9171445999999 427.205536 357.21945179999994 427.205536 C 377.75137319999993 427.205536 395.04724109999995 413.0925904 399.92047109999993 394.0584108 L 476.0004576999999 394.0584108 L 564.2756956999999 305.7831422 L 675.234314 305.7831422 C 676.3449097 307.7204286 677.4337769 309.6917726 678.4960938 311.7040101 C 688.4368897 330.5332643 681.9556275 351.9328614 670.8817750000001 372.20544440000003 L 618.2369386 372.20544440000003 C 613.3637086 353.17126470000005 596.0678102 339.0583192 575.5358888000001 339.0583192 C 551.2335817000001 339.0583192 531.4622804 358.82959000000005 531.4622804 383.13192760000004 C 531.4622804 407.4342652 551.2335817000001 427.20553600000005 575.5358888000001 427.20553600000005 C 596.0678102 427.20553600000005 613.3637086000001 413.09259040000006 618.2369386 394.05841080000005 L 657.3062135 394.05841080000005 C 654.0619508 398.8341371 650.8032228 403.45141620000004 647.7197267 407.8496706 C 635.352112 425.4906313 621.4345094 442.3839418 609.8578493 460.4797365 L 298.2009888 460.4797365 C 293.5106201 441.9346926 290.7680664 421.1824648 290.7680664 397.6310732 C 290.7680664 368.5263369 297.903656 340.82388330000003 310.7321472 315.7163088 L 286.546112 315.7163088 C 275.1705932 341.14132709999996 268.9150695 368.76312279999996 268.9150695 397.63107319999995 C 268.9150695 420.88430809999994 271.4301452 441.68453999999997 275.7516479 460.47973649999994 L 225.16546630000002 460.47973649999994 C 220.2922363 441.44555679999996 202.99636840000002 427.33261129999994 182.464447 427.33261129999994 C 158.1621246 427.33261129999994 138.39082330000002 447.10391259999994 138.39082330000002 471.40621969999995 C 138.39082330000002 495.70855729999994 158.16212460000003 515.4808352 182.464447 515.4808352 C 202.9963684 515.4808352 220.29248040000002 501.3671572 225.1655884 482.3327334 L 458.3040772 482.3327334 L 391.881775 548.7550051 L 344.249817 548.7550051 C 330.7752992 532.7471316 318.3614808 514.3591921 308.888733 492.26589989999997 L 285.3605958 492.26589989999997 C 293.6791383 514.0177615 304.5566407 532.5470583 316.5208436 548.7550051 L 288.26828 548.7550051 C 283.39505 529.7208254 266.0991821 515.6079103999999 245.567276 515.6079103999999 C 221.2649384 515.6079103999999 201.4936523 535.3791505999999 201.4936523 559.6815187999999 C 201.4936523 583.9848024999999 221.2649383 603.7561037999999 245.567276 603.7561037999999 C 266.0993042 603.7561037999999 283.39541629999997 589.6428835999999 288.2684021 570.6079714999998 L 400.9341736 570.6079714999998 L 489.2094422 482.33273349999985 L 597.6193848 482.33273349999985 C 595.6680298 486.4529421999998 593.8794556 490.65600619999987 592.3165894 494.9736331999998 C 586.0490723 512.2883304999998 583.553772 530.3767093999999 582.3552857 548.7550052999998 L 541.2722779 548.7550052999998 C 536.3990478999999 529.7208255999998 519.1032104999999 515.6079105999997 498.57125859999996 515.6079105999997 C 474.268921 515.6079105999997 454.49765019999995 535.3791507999997 454.49765019999995 559.6815189999998 C 454.49765019999995 583.9848026999997 474.268921 603.7561039999997 498.57125859999996 603.7561039999997 C 519.1032715 603.7561039999997 536.3994141 589.6428837999997 541.2724 570.6079716999997 L 581.3877564 570.6079716999997 C 580.6224365999999 596.2847294999997 580.4971923999999 622.1568608999996 574.4698487 646.9459843999997 C 573.8115234999999 649.6531376999997 573.0808715999999 652.3364872999997 572.2868652999999 654.9973149999997 L 438.6078491 654.9973149999997 C 438.4230346 654.3583989999997 438.2428589 653.7153935999997 438.03320310000004 653.0979619999997 C 430.93447870000006 632.1956181999997 411.83154290000004 614.6942143999997 389.71276850000004 594.4301763999997 C 384.8191833 589.9467779999997 379.79016110000003 585.3308721999997 374.7206115 580.5411992999997 L 343.5889892 580.5411992999997 C 354.2901916 591.6078496999996 365.0264282 601.4509282999996 374.94979850000004 610.5424809999997 C 392.6768493000001 626.7827153999997 408.22640980000006 641.0508427999997 415.163269 654.9973149999997 L 370.2374878 654.9973149999997 C 365.364502 635.9624028999997 348.0683899 621.8492436999998 327.5363464 621.8492436999998 C 303.2340088 621.8492436999998 283.462738 641.6204838999997 283.462738 665.9238286999997 C 283.462738 690.2271123999997 303.2340088 709.9984136999997 327.5363464 709.9984136999997 C 348.0683899 709.9984136999997 365.3645019 695.8851934999997 370.2374878 676.8502813999996 L 564.0441284 676.8502813999996 C 549.7822876 708.2358404999997 526.4663696 735.6065069999996 499.3826904 757.2656255999997 C 468.2801819 782.1389165999997 432.3737793 800.1606450999997 395.5307007 815.4871831999997 C 409.44247440000004 787.1725469999997 435.2697144 729.9741216999996 440.1190491 686.7834477999996 L 418.336731 686.7834477999996 C 412.646637 729.3622441999996 382.1222535 794.7975468999996 367.9897767 821.4459233999996 L 359.4786683 837.4922490999996 L 679.2861939 837.4786382999996 C 679.2861939 837.4786382999996 656.0372924999999 770.5441900999996 671.5355834999999 749.9328618999996 C 682.1643065999999 735.7974858999996 785.0175171 749.6731572999996 804.0708617999999 735.6119389999996 C 837.9558104999999 710.6051640999996 797.6091918999999 667.9542241999995 806.7315673999999 650.8497929999995 C 815.8538818999999 633.7453617999995 836.3792725 641.3472905999995 835.8869629 622.8580326999995 C 835.6298827999999 613.2067875999995 829.1422729999999 605.3566288999995 823.5694579999999 599.6373295999995 C 833.4416504 596.3162846999995 847.7659302 580.5534062999994 842.6025391 570.1422733999995 C 823.8881226 555.3540653999994 822.3588256999999 546.4560550999995 822.3588256999999 546.4560550999995 C 822.3588256999999 546.4560550999995 866.9000244 524.2261963 861.0857544 507.5523376 z M 288.3274536 228.8029633 C 276.07492060000004 228.8029633 266.10684200000003 218.8348694 266.10684200000003 206.5813752 C 266.10684200000003 194.3288422 276.07492060000004 184.3607484 288.3274536 184.3607484 C 300.5799866 184.3607484 310.54809570000003 194.32884230000002 310.54809570000003 206.5813752 C 310.5480957 218.8348694 300.5799866 228.8029633 288.3274536 228.8029633 z M 195.6540375 317.0772705 C 183.4015045 317.0772705 173.4334107 307.1091919 173.4334107 294.8566589 C 173.4334107 282.60412590000004 183.4015046 272.6360168 195.6540375 272.6360168 C 207.90657039999996 272.6360168 217.87466429999998 282.6041259 217.87466429999998 294.8566589 C 217.87466429999998 307.10919190000004 207.9065704 317.0772705 195.6540375 317.0772705 z M 357.2194519 405.3525391 C 344.9659729 405.3525391 334.9978638 395.3844605 334.9978638 383.1319275 C 334.9978638 370.87939450000005 344.9659729 360.9112854 357.2194519 360.9112854 C 369.47198490000005 360.9112854 379.44009400000004 370.8793945 379.44009400000004 383.1319275 C 379.44009400000004 395.38446050000005 369.4719849 405.3525391 357.2194519 405.3525391 z M 506.0337524 283.9301453 L 432.4975891 210.3931275 C 432.5323791 210.3796692 432.56741330000006 210.3671876 432.60223390000004 210.3537293 C 437.3505554 209.5505372 583.8120117000001 185.6837464 660.5656738 283.9301453 L 506.0337524 283.9301453 z M 575.5358887 405.3525391 C 563.2833863 405.3525391 553.3153076 395.3844605 553.3153076 383.1319275 C 553.3153076 370.87939450000005 563.2833862 360.9112854 575.5358887 360.9112854 C 587.7884521999999 360.9112854 597.7565308 370.8793945 597.7565308 383.1319275 C 597.7565308 395.38446050000005 587.7884521 405.3525391 575.5358887 405.3525391 z M 182.464447 493.6278381 C 170.211914 493.6278381 160.24382020000002 483.659729 160.24382020000002 471.4062194 C 160.24382020000002 459.15368639999997 170.2119141 449.1856078 182.464447 449.1856078 C 194.7169799 449.1856078 204.6850738 459.1536864 204.6850738 471.4062194 C 204.6850739 483.659729 194.71698 493.6278381 182.464447 493.6278381 z M 245.567276 581.9030762 C 233.314743 581.9030762 223.3466339 571.9349976 223.3466339 559.6815186 C 223.3466339 547.4289551 233.314743 537.4608765 245.567276 537.4608765 C 257.8197937 537.4608765 267.7879028 547.4289551 267.7879028 559.6815186 C 267.7879028 571.9349976 257.8197937 581.9030762 245.567276 581.9030762 z M 498.5712585 581.9030762 C 486.3187255 581.9030762 476.3506469 571.9349976 476.3506469 559.6815186 C 476.3506469 547.4289551 486.3187255 537.4608765 498.5712585 537.4608765 C 510.82379149999997 537.4608765 520.7918701 547.4289551 520.7918701 559.6815186 C 520.7918701 571.9349976 510.8237915 581.9030762 498.5712585 581.9030762 z M 327.5363464 688.1453857 C 315.2838134 688.1453857 305.3157043 678.1773071 305.3157043 665.9238281 C 305.3157043 653.6702881 315.2838134 643.7022094 327.5363464 643.7022094 C 339.78887940000004 643.7022094 349.756958 653.670288 349.756958 665.9238281 C 349.756958 678.1773071 339.7888794 688.1453857 327.5363464 688.1453857 z" stroke-linecap="round" />
</g>
</g>
</g>
<g transform="matrix(1.9211538461538462 0 0 1.9211538461538462 640.4870124999999 714.3145592763331)" id="text-logo-path-group"  >
<g style=""  paint-order="stroke"   >
		<g transform="matrix(1 0 0 1 0 0)" id="text-logo-path-0"  >
<path style="stroke: none; stroke-width: 0; stroke-dasharray: none; stroke-linecap: butt; stroke-dashoffset: 0; stroke-linejoin: miter; stroke-miterlimit: 4; fill: rgb(61,68,170); fill-rule: nonzero; opacity: 1;"  paint-order="stroke"  transform=" translate(-179.675, 27.185)" d="M 12.25 0 L 3.43 0 Q 3.12 0 3.12 -0.39 L 3.12 -0.39 L 3.28 -53.98 Q 3.28 -54.29 3.59 -54.29 L 3.59 -54.29 L 19.34 -54.29 Q 23.56 -54.29 27.11 -52.22 Q 30.65 -50.15 32.76 -46.68 Q 34.87 -43.21 34.87 -38.84 L 34.87 -38.84 Q 34.87 -35.96 34.01 -33.66 Q 33.15 -31.36 31.98 -29.76 Q 30.81 -28.16 29.87 -27.38 L 29.87 -27.38 Q 34.09 -22.7 34.09 -16.38 L 34.09 -16.38 L 34.16 -0.39 Q 34.16 0 33.77 0 L 33.77 0 L 24.96 0 Q 24.65 0 24.65 -0.23 L 24.65 -0.23 L 24.65 -16.38 Q 24.65 -19.19 22.66 -21.25 Q 20.67 -23.32 17.78 -23.32 L 17.78 -23.32 L 12.64 -23.32 L 12.56 -0.39 Q 12.56 0 12.25 0 L 12.25 0 Z M 12.64 -44.93 L 12.64 -32.68 L 19.34 -32.68 Q 21.76 -32.68 23.63 -34.48 Q 25.51 -36.27 25.51 -38.84 L 25.51 -38.84 Q 25.51 -41.34 23.67 -43.13 Q 21.84 -44.93 19.34 -44.93 L 19.34 -44.93 L 12.64 -44.93 Z M 63.73 0.78 L 63.73 0.78 Q 59.59 0.78 56.08 -1.36 Q 52.57 -3.51 50.5 -7.1 Q 48.44 -10.69 48.44 -14.98 L 48.44 -14.98 L 48.59 -53.98 Q 48.59 -54.29 48.91 -54.29 L 48.91 -54.29 L 57.64 -54.29 Q 57.95 -54.29 57.95 -53.98 L 57.95 -53.98 L 57.95 -14.98 Q 57.95 -12.32 59.63 -10.49 Q 61.31 -8.66 63.73 -8.66 L 63.73 -8.66 Q 66.22 -8.66 67.9 -10.49 Q 69.58 -12.32 69.58 -14.98 L 69.58 -14.98 L 69.58 -53.98 Q 69.58 -54.29 69.89 -54.29 L 69.89 -54.29 L 78.62 -54.29 Q 78.94 -54.29 78.94 -53.98 L 78.94 -53.98 L 79.09 -14.98 Q 79.09 -10.61 77.03 -7.02 Q 74.96 -3.43 71.49 -1.33 Q 68.02 0.78 63.73 0.78 Z M 119.42 0 L 94.22 0 Q 93.91 0 93.91 -0.39 L 93.91 -0.39 L 93.99 -53.9 Q 93.99 -54.29 94.38 -54.29 L 94.38 -54.29 L 103.04 -54.29 Q 103.43 -54.29 103.43 -53.9 L 103.43 -53.9 L 103.35 -9.59 L 119.42 -9.59 Q 119.81 -9.59 119.81 -9.2 L 119.81 -9.2 L 119.81 -0.39 Q 119.81 0 119.42 0 L 119.42 0 Z M 159.04 0 L 133.85 0 Q 133.54 0 133.54 -0.39 L 133.54 -0.39 L 133.61 -53.98 Q 133.61 -54.29 133.93 -54.29 L 133.93 -54.29 L 158.96 -54.29 Q 159.28 -54.29 159.28 -53.9 L 159.28 -53.9 L 159.28 -45.16 Q 159.28 -44.85 158.96 -44.85 L 158.96 -44.85 L 142.97 -44.85 L 142.97 -32.68 L 158.96 -32.68 Q 159.28 -32.68 159.28 -32.37 L 159.28 -32.37 L 159.35 -23.56 Q 159.35 -23.24 159.04 -23.24 L 159.04 -23.24 L 142.97 -23.24 L 142.97 -9.59 L 159.04 -9.59 Q 159.35 -9.59 159.35 -9.2 L 159.35 -9.2 L 159.35 -0.31 Q 159.35 0 159.04 0 L 159.04 0 Z M 200.46 0 L 175.27 0 Q 174.95 0 174.95 -0.39 L 174.95 -0.39 L 175.03 -53.9 Q 175.03 -54.29 175.42 -54.29 L 175.42 -54.29 L 184.08 -54.29 Q 184.47 -54.29 184.47 -53.9 L 184.47 -53.9 L 184.39 -9.59 L 200.46 -9.59 Q 200.85 -9.59 200.85 -9.2 L 200.85 -9.2 L 200.85 -0.39 Q 200.85 0 200.46 0 L 200.46 0 Z M 227.92 0.78 L 227.92 0.78 Q 223.7 0.78 220.23 -1.36 Q 216.76 -3.51 214.66 -7.06 Q 212.55 -10.61 212.55 -14.9 L 212.55 -14.9 L 212.63 -39.62 Q 212.63 -43.91 214.69 -47.42 Q 216.76 -50.93 220.27 -53.04 Q 223.78 -55.15 227.92 -55.15 L 227.92 -55.15 Q 232.13 -55.15 235.56 -53.04 Q 238.99 -50.93 241.06 -47.42 Q 243.13 -43.91 243.13 -39.62 L 243.13 -39.62 L 243.2 -14.9 Q 243.2 -10.61 241.14 -7.06 Q 239.07 -3.51 235.6 -1.36 Q 232.13 0.78 227.92 0.78 Z M 227.92 -8.66 L 227.92 -8.66 Q 230.26 -8.66 232.01 -10.57 Q 233.77 -12.48 233.77 -14.9 L 233.77 -14.9 L 233.69 -39.62 Q 233.69 -42.2 232.05 -43.99 Q 230.41 -45.79 227.92 -45.79 L 227.92 -45.79 Q 225.5 -45.79 223.78 -44.03 Q 222.07 -42.28 222.07 -39.62 L 222.07 -39.62 L 222.07 -14.9 Q 222.07 -12.32 223.78 -10.49 Q 225.5 -8.66 227.92 -8.66 Z M 272.06 0.78 L 272.06 0.78 Q 267.85 0.78 264.42 -1.33 Q 260.99 -3.43 258.92 -6.98 Q 256.85 -10.53 256.85 -14.9 L 256.85 -14.9 L 256.85 -39.62 Q 256.85 -43.84 258.92 -47.38 Q 260.99 -50.93 264.46 -53.04 Q 267.93 -55.15 272.06 -55.15 L 272.06 -55.15 Q 276.35 -55.15 279.82 -53.08 Q 283.3 -51.01 285.32 -47.5 Q 287.35 -43.99 287.35 -39.62 L 287.35 -39.62 L 287.35 -36.04 Q 287.35 -35.72 286.96 -35.72 L 286.96 -35.72 L 278.23 -35.72 Q 277.91 -35.72 277.91 -36.04 L 277.91 -36.04 L 277.91 -39 Q 277.91 -41.96 276.24 -43.91 Q 274.56 -45.86 272.06 -45.86 L 272.06 -45.86 Q 269.8 -45.86 268.05 -43.99 Q 266.29 -42.12 266.29 -39.62 L 266.29 -39.62 L 266.29 -14.9 Q 266.29 -12.32 268.01 -10.49 Q 269.72 -8.66 272.06 -8.66 L 272.06 -8.66 Q 274.56 -8.66 276.24 -10.45 Q 277.91 -12.25 277.91 -14.9 L 277.91 -14.9 L 277.91 -18.72 L 272.45 -18.72 Q 272.06 -18.72 272.06 -19.11 L 272.06 -19.11 L 272.06 -27.85 Q 272.06 -28.24 272.45 -28.24 L 272.45 -28.24 L 287.04 -28.24 Q 287.35 -28.24 287.35 -27.85 L 287.35 -27.85 L 287.35 -14.9 Q 287.35 -10.53 285.28 -6.98 Q 283.22 -3.43 279.79 -1.33 Q 276.35 0.78 272.06 0.78 Z M 310.75 0 L 301.94 0 Q 301.55 0 301.55 -0.39 L 301.55 -0.39 L 301.63 -53.98 Q 301.63 -54.29 301.94 -54.29 L 301.94 -54.29 L 310.67 -54.29 Q 310.99 -54.29 310.99 -53.98 L 310.99 -53.98 L 311.06 -0.39 Q 311.06 0 310.75 0 L 310.75 0 Z M 340.94 0.78 L 340.94 0.78 Q 336.65 0.78 333.18 -1.36 Q 329.71 -3.51 327.68 -7.1 Q 325.65 -10.69 325.65 -15.13 L 325.65 -15.13 L 325.73 -39.47 Q 325.73 -43.76 327.72 -47.31 Q 329.71 -50.86 333.18 -53 Q 336.65 -55.15 340.94 -55.15 L 340.94 -55.15 Q 345.23 -55.15 348.66 -53.04 Q 352.09 -50.93 354.12 -47.38 Q 356.15 -43.84 356.15 -39.47 L 356.15 -39.47 L 356.15 -35.88 Q 356.15 -35.57 355.84 -35.57 L 355.84 -35.57 L 347.1 -35.57 Q 346.79 -35.57 346.79 -35.88 L 346.79 -35.88 L 346.79 -39.47 Q 346.79 -42.04 345.11 -43.91 Q 343.43 -45.79 340.94 -45.79 L 340.94 -45.79 Q 338.13 -45.79 336.65 -43.88 Q 335.17 -41.96 335.17 -39.47 L 335.17 -39.47 L 335.17 -15.13 Q 335.17 -12.25 336.84 -10.45 Q 338.52 -8.66 340.94 -8.66 L 340.94 -8.66 Q 343.43 -8.66 345.11 -10.65 Q 346.79 -12.64 346.79 -15.13 L 346.79 -15.13 L 346.79 -18.72 Q 346.79 -19.03 347.1 -19.03 L 347.1 -19.03 L 355.91 -19.03 Q 356.23 -19.03 356.23 -18.72 L 356.23 -18.72 L 356.23 -15.13 Q 356.23 -10.69 354.16 -7.1 Q 352.09 -3.51 348.66 -1.36 Q 345.23 0.78 340.94 0.78 Z" stroke-linecap="round" />
</g>
</g>
</g>
<g transform="matrix(1.9211538461538462 0 0 1.9211538461538462 639.8439812950721 823.9560120453496)" id="tagline-a5d03a71-b09b-4fd3-93bb-9b0b1dd021d6-logo-path-group"  >
<g style=""  paint-order="stroke"   >
		<g transform="matrix(1 0 0 1 0 0)" id="tagline-a5d03a71-b09b-4fd3-93bb-9b0b1dd021d6-logo-path-0"  >
<path style="stroke: none; stroke-width: 0; stroke-dasharray: none; stroke-linecap: butt; stroke-dashoffset: 0; stroke-linejoin: miter; stroke-miterlimit: 4; fill: rgb(61,68,170); fill-rule: nonzero; opacity: 1;"  paint-order="stroke"  transform=" translate(-107.56, 6.301247529557426)" d="M 1.16 -3.21 L 1.16 -3.21 L 1.16 -9.4 Q 1.16 -9.71 1.23 -10.08 Q 1.31 -10.44 1.47 -10.8 Q 1.63 -11.15 1.88 -11.48 Q 2.14 -11.8 2.49 -12.05 Q 2.85 -12.3 3.31 -12.45 Q 3.78 -12.6 4.37 -12.6 L 4.37 -12.6 L 12.61 -12.6 L 12.61 -10.32 L 4.37 -10.32 Q 3.92 -10.32 3.68 -10.08 Q 3.45 -9.84 3.45 -9.38 L 3.45 -9.38 L 3.45 -3.21 Q 3.45 -2.77 3.69 -2.53 Q 3.93 -2.29 4.37 -2.29 L 4.37 -2.29 L 12.61 -2.29 L 12.61 0 L 4.37 0 Q 4.05 0 3.69 -0.07 Q 3.32 -0.15 2.97 -0.31 Q 2.61 -0.47 2.29 -0.72 Q 1.96 -0.97 1.71 -1.32 Q 1.46 -1.68 1.31 -2.15 Q 1.16 -2.62 1.16 -3.21 Z M 15.09 -5.1 L 15.09 -5.1 L 15.09 -7.51 Q 15.09 -8.65 15.49 -9.62 Q 15.89 -10.59 16.6 -11.29 Q 17.3 -11.99 18.27 -12.38 Q 19.23 -12.78 20.37 -12.78 L 20.37 -12.78 L 23.46 -12.78 Q 24.6 -12.78 25.56 -12.38 Q 26.52 -11.99 27.22 -11.29 Q 27.93 -10.59 28.32 -9.62 Q 28.72 -8.65 28.72 -7.51 L 28.72 -7.51 L 28.72 -5.1 Q 28.72 -3.95 28.32 -2.98 Q 27.93 -2.01 27.22 -1.31 Q 26.52 -0.61 25.56 -0.22 Q 24.6 0.18 23.46 0.18 L 23.46 0.18 L 20.37 0.18 Q 19.23 0.18 18.27 -0.22 Q 17.3 -0.61 16.6 -1.31 Q 15.89 -2.01 15.49 -2.98 Q 15.09 -3.95 15.09 -5.1 Z M 17.38 -7.51 L 17.38 -5.1 Q 17.38 -4.42 17.59 -3.87 Q 17.81 -3.32 18.21 -2.93 Q 18.6 -2.54 19.15 -2.32 Q 19.7 -2.11 20.37 -2.11 L 20.37 -2.11 L 23.44 -2.11 Q 24.11 -2.11 24.66 -2.32 Q 25.21 -2.54 25.61 -2.93 Q 26 -3.32 26.22 -3.87 Q 26.43 -4.42 26.43 -5.1 L 26.43 -5.1 L 26.43 -7.51 Q 26.43 -8.18 26.22 -8.73 Q 26 -9.28 25.61 -9.67 Q 25.22 -10.06 24.67 -10.28 Q 24.12 -10.49 23.46 -10.49 L 23.46 -10.49 L 20.37 -10.49 Q 19.7 -10.49 19.15 -10.28 Q 18.6 -10.06 18.21 -9.67 Q 17.81 -9.28 17.59 -8.73 Q 17.38 -8.18 17.38 -7.51 L 17.38 -7.51 Z M 31.48 -5.1 L 31.48 -5.1 L 31.48 -7.51 Q 31.48 -8.65 31.88 -9.62 Q 32.28 -10.59 32.98 -11.29 Q 33.69 -11.99 34.65 -12.38 Q 35.62 -12.78 36.75 -12.78 L 36.75 -12.78 L 39.85 -12.78 Q 40.98 -12.78 41.94 -12.38 Q 42.91 -11.99 43.61 -11.29 Q 44.31 -10.59 44.71 -9.62 Q 45.1 -8.65 45.1 -7.51 L 45.1 -7.51 L 45.1 -5.1 Q 45.1 -3.95 44.71 -2.98 Q 44.31 -2.01 43.61 -1.31 Q 42.91 -0.61 41.94 -0.22 Q 40.98 0.18 39.85 0.18 L 39.85 0.18 L 36.75 0.18 Q 35.62 0.18 34.65 -0.22 Q 33.69 -0.61 32.98 -1.31 Q 32.28 -2.01 31.88 -2.98 Q 31.48 -3.95 31.48 -5.1 Z M 33.77 -7.51 L 33.77 -5.1 Q 33.77 -4.42 33.98 -3.87 Q 34.2 -3.32 34.59 -2.93 Q 34.99 -2.54 35.54 -2.32 Q 36.09 -2.11 36.75 -2.11 L 36.75 -2.11 L 39.83 -2.11 Q 40.5 -2.11 41.05 -2.32 Q 41.6 -2.54 41.99 -2.93 Q 42.39 -3.32 42.6 -3.87 Q 42.82 -4.42 42.82 -5.1 L 42.82 -5.1 L 42.82 -7.51 Q 42.82 -8.18 42.6 -8.73 Q 42.39 -9.28 42 -9.67 Q 41.61 -10.06 41.06 -10.28 Q 40.51 -10.49 39.85 -10.49 L 39.85 -10.49 L 36.75 -10.49 Q 36.09 -10.49 35.54 -10.28 Q 34.99 -10.06 34.59 -9.67 Q 34.2 -9.28 33.98 -8.73 Q 33.77 -8.18 33.77 -7.51 L 33.77 -7.51 Z M 48.26 -1.15 L 48.26 -1.15 L 48.26 -12.6 L 50.55 -12.6 L 50.55 -2.29 L 59.84 -2.29 L 59.84 0 L 49.41 0 Q 49.17 0 48.96 -0.09 Q 48.75 -0.18 48.59 -0.33 Q 48.44 -0.48 48.35 -0.69 Q 48.26 -0.91 48.26 -1.15 Z M 71.03 0 L 68.75 0 L 68.75 -6.3 Q 68.75 -7.68 69.22 -8.84 Q 69.7 -10 70.54 -10.84 Q 71.38 -11.67 72.54 -12.14 Q 73.69 -12.6 75.05 -12.6 L 75.05 -12.6 L 80.2 -12.6 Q 80.44 -12.6 80.65 -12.52 Q 80.86 -12.43 81.02 -12.27 Q 81.18 -12.11 81.26 -11.9 Q 81.35 -11.69 81.35 -11.45 L 81.35 -11.45 L 81.35 0 L 79.07 0 L 79.07 -3.09 L 71.03 -3.09 L 71.03 0 Z M 71.03 -6.3 L 71.03 -5.38 L 79.07 -5.38 L 79.07 -10.32 L 75.05 -10.32 Q 74.94 -10.32 74.61 -10.29 Q 74.27 -10.26 73.82 -10.13 Q 73.38 -10.01 72.89 -9.76 Q 72.4 -9.5 71.98 -9.05 Q 71.57 -8.6 71.3 -7.93 Q 71.03 -7.26 71.03 -6.3 L 71.03 -6.3 Z M 84.65 -6.3 L 84.65 -6.3 L 84.65 -12.6 L 86.94 -12.6 L 86.94 -6.3 Q 86.94 -5.33 87.2 -4.67 Q 87.47 -4 87.89 -3.55 Q 88.3 -3.1 88.79 -2.85 Q 89.28 -2.59 89.73 -2.47 Q 90.17 -2.35 90.51 -2.32 Q 90.85 -2.29 90.95 -2.29 L 90.95 -2.29 L 94.97 -2.29 L 94.97 -12.6 L 97.25 -12.6 L 97.25 -1.15 Q 97.25 -0.91 97.17 -0.69 Q 97.08 -0.48 96.92 -0.33 Q 96.76 -0.18 96.55 -0.09 Q 96.34 0 96.1 0 L 96.1 0 L 90.95 0 Q 90.22 0 89.48 -0.16 Q 88.73 -0.32 88.03 -0.65 Q 87.33 -0.98 86.72 -1.49 Q 86.1 -2 85.64 -2.69 Q 85.18 -3.39 84.91 -4.29 Q 84.65 -5.19 84.65 -6.3 Z M 104.88 -10.32 L 99.83 -10.32 L 99.83 -12.6 L 112.2 -12.6 L 112.2 -10.32 L 107.16 -10.32 L 107.16 0 L 104.88 0 L 104.88 -10.32 Z M 114.21 -5.1 L 114.21 -5.1 L 114.21 -7.51 Q 114.21 -8.65 114.61 -9.62 Q 115.01 -10.59 115.71 -11.29 Q 116.41 -11.99 117.38 -12.38 Q 118.35 -12.78 119.48 -12.78 L 119.48 -12.78 L 122.57 -12.78 Q 123.71 -12.78 124.67 -12.38 Q 125.63 -11.99 126.34 -11.29 Q 127.04 -10.59 127.43 -9.62 Q 127.83 -8.65 127.83 -7.51 L 127.83 -7.51 L 127.83 -5.1 Q 127.83 -3.95 127.43 -2.98 Q 127.04 -2.01 126.34 -1.31 Q 125.63 -0.61 124.67 -0.22 Q 123.71 0.18 122.57 0.18 L 122.57 0.18 L 119.48 0.18 Q 118.35 0.18 117.38 -0.22 Q 116.41 -0.61 115.71 -1.31 Q 115.01 -2.01 114.61 -2.98 Q 114.21 -3.95 114.21 -5.1 Z M 116.49 -7.51 L 116.49 -5.1 Q 116.49 -4.42 116.71 -3.87 Q 116.92 -3.32 117.32 -2.93 Q 117.71 -2.54 118.26 -2.32 Q 118.81 -2.11 119.48 -2.11 L 119.48 -2.11 L 122.56 -2.11 Q 123.22 -2.11 123.77 -2.32 Q 124.32 -2.54 124.72 -2.93 Q 125.11 -3.32 125.33 -3.87 Q 125.54 -4.42 125.54 -5.1 L 125.54 -5.1 L 125.54 -7.51 Q 125.54 -8.18 125.33 -8.73 Q 125.11 -9.28 124.72 -9.67 Q 124.33 -10.06 123.78 -10.28 Q 123.23 -10.49 122.57 -10.49 L 122.57 -10.49 L 119.48 -10.49 Q 118.81 -10.49 118.26 -10.28 Q 117.71 -10.06 117.32 -9.67 Q 116.92 -9.28 116.71 -8.73 Q 116.49 -8.18 116.49 -7.51 L 116.49 -7.51 Z M 133.27 0 L 130.99 0 L 130.99 -11.63 Q 130.99 -12.02 131.22 -12.33 Q 131.45 -12.64 131.83 -12.74 L 131.83 -12.74 Q 132.02 -12.79 132.2 -12.77 Q 132.39 -12.76 132.56 -12.7 Q 132.73 -12.63 132.87 -12.51 Q 133.01 -12.39 133.11 -12.23 L 133.11 -12.23 L 138.31 -3.18 L 143.51 -12.23 Q 143.72 -12.56 144.08 -12.7 L 144.08 -12.7 Q 144.29 -12.78 144.51 -12.78 L 144.51 -12.78 Q 144.66 -12.78 144.81 -12.74 L 144.81 -12.74 Q 145.18 -12.64 145.42 -12.33 Q 145.66 -12.02 145.66 -11.63 L 145.66 -11.63 L 145.66 0 L 143.35 0 L 143.35 -7.51 L 139.3 -0.38 Q 139.15 -0.11 138.89 0.04 Q 138.62 0.18 138.31 0.18 L 138.31 0.18 Q 138.01 0.18 137.75 0.04 Q 137.49 -0.11 137.34 -0.38 L 137.34 -0.38 L 133.27 -7.51 L 133.27 0 Z M 151.26 0 L 148.97 0 L 148.97 -6.3 Q 148.97 -7.68 149.45 -8.84 Q 149.92 -10 150.77 -10.84 Q 151.61 -11.67 152.76 -12.14 Q 153.91 -12.6 155.28 -12.6 L 155.28 -12.6 L 160.43 -12.6 Q 160.66 -12.6 160.88 -12.52 Q 161.09 -12.43 161.24 -12.27 Q 161.4 -12.11 161.49 -11.9 Q 161.58 -11.69 161.58 -11.45 L 161.58 -11.45 L 161.58 0 L 159.29 0 L 159.29 -3.09 L 151.26 -3.09 L 151.26 0 Z M 151.26 -6.3 L 151.26 -5.38 L 159.29 -5.38 L 159.29 -10.32 L 155.28 -10.32 Q 155.17 -10.32 154.83 -10.29 Q 154.49 -10.26 154.05 -10.13 Q 153.61 -10.01 153.11 -9.76 Q 152.62 -9.5 152.21 -9.05 Q 151.8 -8.6 151.53 -7.93 Q 151.26 -7.26 151.26 -6.3 L 151.26 -6.3 Z M 169.2 -10.32 L 164.16 -10.32 L 164.16 -12.6 L 176.52 -12.6 L 176.52 -10.32 L 171.49 -10.32 L 171.49 0 L 169.2 0 L 169.2 -10.32 Z M 181.4 0 L 179.12 0 L 179.12 -12.6 L 181.4 -12.6 L 181.4 0 Z M 184.58 -5.1 L 184.58 -5.1 L 184.58 -7.51 Q 184.58 -8.65 184.98 -9.62 Q 185.38 -10.59 186.08 -11.29 Q 186.79 -11.99 187.75 -12.38 Q 188.72 -12.78 189.85 -12.78 L 189.85 -12.78 L 192.95 -12.78 Q 194.08 -12.78 195.04 -12.38 Q 196.01 -11.99 196.71 -11.29 Q 197.41 -10.59 197.81 -9.62 Q 198.2 -8.65 198.2 -7.51 L 198.2 -7.51 L 198.2 -5.1 Q 198.2 -3.95 197.81 -2.98 Q 197.41 -2.01 196.71 -1.31 Q 196.01 -0.61 195.04 -0.22 Q 194.08 0.18 192.95 0.18 L 192.95 0.18 L 189.85 0.18 Q 188.72 0.18 187.75 -0.22 Q 186.79 -0.61 186.08 -1.31 Q 185.38 -2.01 184.98 -2.98 Q 184.58 -3.95 184.58 -5.1 Z M 186.87 -7.51 L 186.87 -5.1 Q 186.87 -4.42 187.08 -3.87 Q 187.3 -3.32 187.69 -2.93 Q 188.09 -2.54 188.64 -2.32 Q 189.19 -2.11 189.85 -2.11 L 189.85 -2.11 L 192.93 -2.11 Q 193.6 -2.11 194.15 -2.32 Q 194.7 -2.54 195.09 -2.93 Q 195.49 -3.32 195.7 -3.87 Q 195.92 -4.42 195.92 -5.1 L 195.92 -5.1 L 195.92 -7.51 Q 195.92 -8.18 195.7 -8.73 Q 195.49 -9.28 195.1 -9.67 Q 194.71 -10.06 194.16 -10.28 Q 193.61 -10.49 192.95 -10.49 L 192.95 -10.49 L 189.85 -10.49 Q 189.19 -10.49 188.64 -10.28 Q 188.09 -10.06 187.69 -9.67 Q 187.3 -9.28 187.08 -8.73 Q 186.87 -8.18 186.87 -7.51 L 186.87 -7.51 Z M 203.65 0 L 201.36 0 L 201.36 -11.63 Q 201.36 -11.98 201.56 -12.27 Q 201.76 -12.55 202.07 -12.69 L 202.07 -12.69 Q 202.29 -12.78 202.51 -12.78 L 202.51 -12.78 Q 202.62 -12.78 202.73 -12.76 L 202.73 -12.76 Q 203.08 -12.69 203.32 -12.44 L 203.32 -12.44 L 211.67 -3.73 L 211.67 -12.6 L 213.96 -12.6 L 213.96 -0.98 Q 213.96 -0.73 213.87 -0.52 Q 213.77 -0.31 213.62 -0.15 Q 213.47 0 213.25 0.09 Q 213.04 0.18 212.81 0.18 L 212.81 0.18 Q 212.6 0.18 212.38 0.1 Q 212.16 0.02 212 -0.16 L 212 -0.16 L 203.65 -8.88 L 203.65 0 Z" stroke-linecap="round" />
</g>
</g>
</g>
</svg>